<svg xmlns="http://www.w3.org/2000/svg" viewBox="0 0 763.54 660.27"><defs><style>.cls-1{fill:#231f20;}</style></defs><g id="Layer_2" data-name="Layer 2"><g id="Layer_2-2" data-name="Layer 2"><path class="cls-1" d="M46.64,476.93l15-4.29V448.36l-15,4.3Zm0-203.2,15-4.3V245.16l-15,4.3Zm0-33.87,15-4.29V211.29l-15,4.3Zm0,67.74,15-4.3V279l-15,4.29Zm0-101.61,15-4.29V177.43l-15,4.29ZM0,151.62l15-4.3V123.05l-15,4.3Zm0-33.87,15-4.29V89.19L0,93.48Zm46.64,54.38,15-4.3V143.56l-15,4.29ZM0,185.49l15-4.3V156.92L0,161.21Zm46.64-81.1,15-4.29V75.83l-15,4.29Zm0-33.86,15-4.3V42l-15,4.29ZM23.32,212.67l15-4.29V184.11l-15,4.29Zm0,67.74,15-4.3V251.84l-15,4.3Zm0-169.34,15-4.29V82.51l-15,4.29Zm0,135.47,15-4.29V218l-15,4.3Zm0-67.73,15-4.3V150.24l-15,4.29ZM0,83.88l15-4.29V55.32L0,59.61Zm23.32,61.06,15-4.29V116.37l-15,4.3ZM70,538l15-4.3V509.42l-15,4.29ZM23.32,449.74l15-4.29V421.18l-15,4.29Zm0-101.6,15-4.29V319.58l-15,4.29Zm0-33.87,15-4.29V285.71l-15,4.29Zm0,67.74,15-4.3V353.44l-15,4.3ZM0,219.35l15-4.29V190.79L0,195.08Zm70-20L85,195V170.75L70,175Zm0-67.73,15-4.29V103l-15,4.3Zm0,33.87,15-4.3V136.88l-15,4.29Zm0-67.74,15-4.29V69.15L70,73.44ZM0,253.22l15-4.29V224.65L0,229Zm70,47.7,15-4.3V272.35l-15,4.29ZM70,63.85l15-4.3V35.28L70,39.57Zm0,169.33,15-4.29V204.61l-15,4.3Zm0,101.6,15-4.29V306.22l-15,4.29Zm0-330V30l15-4.3V0ZM0,50l15-4.3V22.07L0,26.79ZM46.64,36.66l15-4.3v-25l-15,4.72ZM23.32,43.34l15-4.3V14.71l-15,4.73ZM70,267.05l15-4.3V238.48l-15,4.3ZM0,456.42l15-4.29V427.86L0,432.15Zm0-67.73,15-4.3V360.12l-15,4.3Zm0-101.6,15-4.3V258.52L0,262.81Zm70,81.56,15-4.29V340.08l-15,4.3ZM0,321l15-4.29V292.39L0,296.68ZM0,558l15-4.29V529.46L0,533.75Zm70-155.5,15-4.3V374l-15,4.29Zm0,67.73L85,466V441.68L70,446Z"/><path class="cls-1" d="M108.26,78.25l7.5,5.9V59.68l-7.5-5.94ZM120.76,537h7.49V525.14l-7.49-5.94Zm0-25.9,7.49,5.9V492.6l-7.49-5.94Zm0-162.7,7.49,5.9V329.89L120.76,324Zm0-32.54,7.49,5.9V297.35l-7.49-5.93Zm0-162.71,7.49,5.9V134.65l-7.49-5.93Zm0-65.08,7.49,5.9V69.57l-7.49-5.93Zm0,162.71,7.49,5.9V232.27l-7.49-5.93Zm0-65.09,7.49,5.9V167.19l-7.49-5.93Zm0,32.54,7.49,5.91V199.73l-7.49-5.93Zm0,162.71,7.49,5.9V362.44l-7.49-5.94Zm-12.5-237.62,7.5,5.9V124.76l-7.5-5.94Zm0-32.54,7.5,5.9V92.22l-7.5-5.94Zm0,97.62,7.5,5.9V189.84l-7.5-5.93Zm0-32.54,7.5,5.9V157.3l-7.5-5.93Zm25-141.33V65.38l7.49,5.9V41.45Zm-25,434.2,7.5,5.9V450.17l-7.5-5.94Zm0-65.09,7.5,5.9V385.08l-7.5-5.93Zm0-97.62,7.5,5.9V287.46l-7.5-5.93Zm0-32.54,7.5,5.9V254.92l-7.5-5.93Zm0-32.54,7.5,5.9V222.38l-7.5-5.93Zm0,97.62,7.5,5.9V320l-7.5-5.93Zm12.5-55.24,7.49,5.9V264.81l-7.49-5.93Zm12.49,42.37,7.49,5.9V307.25l-7.49-5.94Zm0-32.54,7.49,5.9V274.71l-7.49-5.94Zm0,65.08,7.49,5.9V339.79l-7.49-5.94Zm0-97.62,7.49,5.9V242.16l-7.49-5.93Zm0,195.24,7.49,5.9V437.41l-7.49-5.94Zm0-65.08,7.49,5.9V372.33l-7.49-5.94Zm0-162.7,7.49,5.9V209.62l-7.49-5.93ZM120.76,55.54l7.49,5.9V29.94L120.76,23Zm-12.5-9.83,7.5,5.9V18.42l-7.5-6.91Zm25,149.83,7.49,5.9V177.08l-7.49-5.93ZM95.77,35.87l7.5,5.9V6.91L95.77,0ZM133.25,163l7.49,5.9V144.54l-7.49-5.93Zm0-32.54,7.49,5.9V112l-7.49-5.93Zm0-32.54,7.49,5.9V79.46l-7.49-5.93ZM95.77,328.74l7.5,5.9V310.11l-7.5-5.93Zm0-97.62,7.5,5.9V212.49l-7.5-5.94Zm0,32.54,7.5,5.9V245l-7.5-5.93Zm0,32.54,7.5,5.9V277.57l-7.5-5.93Zm0-195.25,7.5,5.91V82.33l-7.5-5.94Zm0,32.54,7.5,5.91V114.87l-7.5-5.94Zm0,32.55,7.5,5.9V147.41l-7.5-5.94Zm37.48,354.9,7.49,5.91V502.49l-7.49-5.94Zm-37.48-29.5,7.5,5.9V472.81l-7.5-5.93Zm0-130.16,7.5,5.9V342.65l-7.5-5.93Zm0-292.87,7.5,5.9V49.79l-7.5-5.94Zm0,358,7.5,5.9V407.73l-7.5-5.93Z"/><path class="cls-1" d="M206.79,421l15-4.29V392.48l-15,4.29Zm0-33.86,15-4.3V358.61l-15,4.29Zm0,101.6,15-4.3V460.21l-15,4.3Zm0-135.47,15-4.29V324.74l-15,4.3Zm-46.63-54.38,15-4.29V270.37l-15,4.29Zm0-33.86,15-4.3V236.5l-15,4.29Zm46.63,54.37,15-4.29V290.88l-15,4.29ZM160.16,332.8l15-4.29V304.24l-15,4.29Zm23.32-108.28,15-4.29V196l-15,4.3Zm23.31,61.06,15-4.3V257l-15,4.29Zm0-33.87,15-4.3V223.14l-15,4.3Zm0-33.87,15-4.29V189.27l-15,4.3ZM183.48,360l15-4.29V331.42l-15,4.3Zm0,67.73,15-4.29V399.16l-15,4.29Zm0-169.33,15-4.3V229.82l-15,4.3Zm0,135.47,15-4.3V365.29l-15,4.29Zm0-67.74,15-4.29V297.56l-15,4.29ZM160.16,231.2l15-4.29V202.63l-15,4.3Zm23.32,61.06,15-4.3V263.69l-15,4.29Zm0,270.93,15-4.29V534.63l-15,4.29ZM160.16,366.67l15-4.3V338.1l-15,4.3Zm70-20,15-4.29V318.06l-15,4.3Zm0-67.73,15-4.3V250.33l-15,4.29Zm0,33.86,15-4.29V284.2l-15,4.29Zm0-67.73,15-4.3V216.46l-15,4.3Zm-70,155.51,15-4.3V372l-15,4.29Zm70,47.69,15-4.29V419.66l-15,4.3Zm0-237.07,15-4.29V182.59l-15,4.3Zm0,169.34,15-4.3V351.93l-15,4.29Zm0,101.6,15-4.3V453.53l-15,4.3Zm0-330.06v25.25l15-4.29V147.32Zm-70,45.29,15-4.29V169.38l-15,4.73ZM206.79,184l15-4.29v-25l-15,4.73Zm-23.31,6.68,15-4.29V162l-15,4.73Zm46.63,223.71,15-4.29V385.8l-15,4.29Zm-70,155.51,15-4.29V541.3l-15,4.3Zm0-135.47,15-4.29V405.84l-15,4.29Zm0,67.74,15-4.3V473.57l-15,4.29Zm0-33.87,15-4.29V439.7l-15,4.3Zm70,81.56,15-4.29V521.27l-15,4.29Zm0,33.87,15-4.29V555.13l-15,4.3Z"/><path class="cls-1" d="M280.91,560.8l7.5,5.9V542.29l-7.5-5.93ZM268.42,225.56l7.5,5.9V207l-7.5-5.93Zm12.49,237.62,7.5,5.9V444.67l-7.5-5.93Zm0-162.7,7.5,5.9V282l-7.5-5.94Zm0-65.08,7.5,5.9V216.89l-7.5-5.94Zm0,32.54,7.5,5.9V249.43l-7.5-5.94Zm0,65.08,7.5,5.9V314.51l-7.5-5.94Zm0,32.54,7.5,5.9V347.05l-7.5-5.94Zm0,162.7,7.5,5.9V509.75l-7.5-5.93ZM268.42,290.65l7.5,5.9V272.08l-7.5-5.94Zm0-32.55,7.5,5.91V239.54l-7.5-5.94Zm0,97.63,7.5,5.9V337.16l-7.5-5.94Zm0-32.54,7.5,5.9V304.62l-7.5-5.94Zm25-141.33v30.83l7.49,5.9V188.77Zm-25,239,7.5,5.9V402.24l-7.5-5.94Zm0-32.54,7.5,5.9V369.7l-7.5-5.94Zm0,97.62,7.5,5.9V467.32l-7.5-5.94Zm12.49-55.25,7.5,5.9V412.13l-7.5-5.94Zm12.5,9.84,7.49,5.9V422l-7.49-5.93Zm0,65.08,7.49,5.9V487.1l-7.49-5.93Zm0-97.62,7.49,5.9V389.48l-7.49-5.93Zm0,162.7,7.49,5.9V552.18l-7.49-5.93Zm0-195.24,7.49,5.9V356.94L293.41,351Zm-12.5-172.54,7.5,5.9V177.25l-7.5-6.91ZM268.42,193l7.5,5.9V165.74l-7.5-6.91Zm25,149.83,7.49,5.9V324.4l-7.49-5.94ZM255.93,183.19l7.5,5.9V154.22l-7.5-6.9Zm37.48,127.12,7.49,5.9V291.86l-7.49-5.94Zm0-32.54,7.49,5.9V259.32l-7.49-5.94Zm0-32.54,7.49,5.9V226.78l-7.49-5.94ZM255.93,345.89l7.5,5.9V327.27l-7.5-5.94Zm0,32.54,7.5,5.9V359.81l-7.5-5.94Zm0,32.54,7.5,5.9V392.35l-7.5-5.94Zm0,32.54,7.5,5.9V424.89l-7.5-5.94Zm0-195.24,7.5,5.9V229.64l-7.5-5.93Zm0,32.54,7.5,5.9V262.18l-7.5-5.93Zm0,32.54,7.5,5.9V294.72l-7.5-5.93Zm0,195.24,7.5,5.91V490l-7.5-5.94Zm0-292.86,7.5,5.9V197.1l-7.5-5.93Zm0,357.95,7.5,5.9V555.05l-7.5-5.94Z"/><path class="cls-1" d="M371.29,476.93l15-4.29V448.36l-15,4.3Zm0-203.2,15-4.3V245.16l-15,4.3Zm0-33.87,15-4.29V211.29l-15,4.3Zm0,67.74,15-4.3V279l-15,4.29Zm0,33.86,15-4.29V312.9l-15,4.29Zm0-135.47,15-4.29V177.43l-15,4.29Zm-46.63-54.37,15-4.3V123.05l-15,4.3Zm0-33.87,15-4.29V89.19l-15,4.29Zm46.63,54.38,15-4.3V143.56l-15,4.29Zm-46.63,13.36,15-4.3V156.92l-15,4.29Zm46.63-81.1,15-4.29V75.83l-15,4.29Zm0-33.86,15-4.3V42l-15,4.29Zm0,338.67,15-4.3V380.63l-15,4.29ZM348,212.67l15-4.29V184.11l-15,4.29Zm0,67.74,15-4.3V251.84l-15,4.3Zm0-169.34,15-4.29V82.51L348,86.8Zm0,135.47,15-4.29V218l-15,4.3Zm0-67.73,15-4.3V150.24l-15,4.29ZM324.66,83.88l15-4.29V55.32l-15,4.29ZM348,144.94l15-4.29V116.37l-15,4.3ZM394.61,538l15-4.3V509.42l-15,4.29ZM348,517.48l15-4.3V488.91l-15,4.29Zm0-67.74,15-4.29V421.18l-15,4.29Zm0-101.6,15-4.29V319.58l-15,4.29Zm0-33.87L363,310V285.71L348,290ZM348,382l15-4.3V353.44l-15,4.3Zm0,33.87,15-4.3V387.31l-15,4.29ZM324.66,219.35l15-4.29V190.79l-15,4.29Zm69.95-20,15-4.29V170.75l-15,4.29Zm0-67.73,15-4.29V103l-15,4.3Zm0,33.87,15-4.3V136.88l-15,4.29Zm0-67.74,15-4.29V69.15l-15,4.29ZM324.66,253.22l15-4.29V224.65l-15,4.3Zm69.95,47.7,15-4.3V272.35l-15,4.29Zm0-237.07,15-4.3V35.28l-15,4.29Zm0,169.33,15-4.29V204.61l-15,4.3Zm0,101.6,15-4.29V306.22l-15,4.29Zm0-330V30l15-4.3V0ZM324.66,50l15-4.3V22.07l-15,4.72Zm46.63-13.36,15-4.3v-25l-15,4.72ZM348,43.34,363,39V14.71l-15,4.73Zm46.63,223.71,15-4.3V238.48l-15,4.3ZM324.66,456.42l15-4.29V427.86l-15,4.29Zm0-67.73,15-4.3V360.12l-15,4.3Zm0-101.6,15-4.3V258.52l-15,4.29Zm69.95,81.56,15-4.29V340.08l-15,4.3ZM324.66,321l15-4.29V292.39l-15,4.29Zm0,237.07,15-4.29V529.46l-15,4.29Zm69.95-155.5,15-4.3V374l-15,4.29Zm0,67.73,15-4.29V441.68l-15,4.3Z"/><path class="cls-1" d="M432.92,78.25l7.5,5.9V59.68l-7.5-5.94ZM445.41,537h7.5V525.14l-7.5-5.94Zm0-25.9,7.5,5.9V492.6l-7.5-5.94Zm0-162.7,7.5,5.9V329.89l-7.5-5.93Zm0-32.54,7.5,5.9V297.35l-7.5-5.93Zm0-162.71,7.5,5.9V134.65l-7.5-5.93Zm0-65.08,7.5,5.9V69.57l-7.5-5.93Zm0,162.71,7.5,5.9V232.27l-7.5-5.93Zm0-65.09,7.5,5.9V167.19l-7.5-5.93Zm0,32.54,7.5,5.91V199.73l-7.5-5.93Zm0,162.71,7.5,5.9V362.44l-7.5-5.94ZM432.92,143.33l7.5,5.9V124.76l-7.5-5.94Zm0-32.54,7.5,5.9V92.22l-7.5-5.94Zm0,97.62,7.5,5.9V189.84l-7.5-5.93Zm0-32.54,7.5,5.9V157.3l-7.5-5.93Zm25-141.33V65.38l7.49,5.9V41.45ZM420.43,524l6.85,5.39h.64v-24l-7.49-5.94Zm12.49-55.24,7.5,5.9V450.17l-7.5-5.94Zm0-65.09,7.5,5.9V385.08l-7.5-5.93Zm0-97.62,7.5,5.9V287.46l-7.5-5.93Zm0-32.54,7.5,5.9V254.92l-7.5-5.93Zm0-32.54,7.5,5.9V222.38l-7.5-5.93Zm0,97.62,7.5,5.9V320l-7.5-5.93Zm12.49-55.24,7.5,5.9V264.81l-7.5-5.93Zm12.5,42.37,7.49,5.9V307.25l-7.49-5.94Zm0-32.54,7.49,5.9V274.71l-7.49-5.94Zm0,65.08,7.49,5.9V339.79l-7.49-5.94Zm0-97.62,7.49,5.9V242.16l-7.49-5.93Zm0,195.24,7.49,5.9V437.41l-7.49-5.94Zm0-32.54,7.49,5.9V404.87l-7.49-5.94Zm0-32.54,7.49,5.9V372.33l-7.49-5.94Zm0-162.7,7.49,5.9V209.62l-7.49-5.93ZM445.41,55.54l7.5,5.9V29.94L445.41,23Zm-12.49-9.83,7.5,5.9V18.42l-7.5-6.91Zm25,149.83,7.49,5.9V177.08l-7.49-5.93ZM420.43,35.87l7.49,5.9V6.91L420.43,0ZM457.91,163l7.49,5.9V144.54l-7.49-5.93Zm0-32.54,7.49,5.9V112l-7.49-5.93Zm0-32.54,7.49,5.9V79.46l-7.49-5.93ZM420.43,328.74l7.49,5.9V310.11l-7.49-5.93Zm0-97.62,7.49,5.9V212.49l-7.49-5.94Zm0,32.54,7.49,5.9V245l-7.49-5.93Zm0,32.54,7.49,5.9V277.57l-7.49-5.93Zm0-195.25,7.49,5.91V82.33l-7.49-5.94Zm0,32.54,7.49,5.91V114.87l-7.49-5.94Zm0,32.55,7.49,5.9V147.41l-7.49-5.94Zm37.48,354.9,7.49,5.91V502.49l-7.49-5.94Zm-37.48-29.5,7.49,5.9V472.81l-7.49-5.93Zm0-130.16,7.49,5.9V342.65l-7.49-5.93Zm0-292.87,7.49,5.9V49.79l-7.49-5.94Zm0,358,7.49,5.9V407.73l-7.49-5.93Z"/><path class="cls-1" d="M531.45,421l15-4.29V392.48l-15,4.29Zm0-33.86,15-4.3V358.61l-15,4.29Zm0,67.73,15-4.29V426.34l-15,4.3Zm-46.63-156,15-4.29V270.37l-15,4.29Zm0-33.86,15-4.3V236.5l-15,4.29Zm46.63,54.37,15-4.29V290.88l-15,4.29ZM484.82,332.8l15-4.29V304.24l-15,4.29Zm23.31-108.28,15-4.29V196l-15,4.3Zm23.32,61.06,15-4.3V257l-15,4.29Zm0-33.87,15-4.3V223.14l-15,4.3Zm0-33.87,15-4.29V189.27l-15,4.3ZM508.13,360l15-4.29V331.42l-15,4.3Zm0,67.73,15-4.29V399.16l-15,4.29Zm0-169.33,15-4.3V229.82l-15,4.3Zm0,67.73,15-4.29V297.56l-15,4.29ZM484.82,231.2l15-4.29V202.63l-15,4.3Zm23.31,61.06,15-4.3V263.69l-15,4.29Zm0,203.2,15-4.3V466.89l-15,4.3Zm0,67.73,15-4.29V534.63l-15,4.29ZM484.82,366.67l15-4.3V338.1l-15,4.3Zm69.95-20,15-4.29V318.06l-15,4.3Zm0-67.73,15-4.3V250.33l-15,4.29Zm0,33.86,15-4.29V284.2l-15,4.29Zm0-67.73,15-4.3V216.46l-15,4.3ZM484.82,400.54l15-4.3V372l-15,4.29Zm69.95-189.38,15-4.29V182.59l-15,4.3Zm0,169.34,15-4.3V351.93l-15,4.29Zm0,101.6,15-4.3V453.53l-15,4.3Zm0-330.06v25.25l15-4.29V147.32Zm-69.95,45.29,15-4.29V169.38l-15,4.73ZM531.45,184l15-4.29v-25l-15,4.73Zm-23.32,6.68,15-4.29V162l-15,4.73Zm46.64,223.71,15-4.29V385.8l-15,4.29ZM484.82,569.87l15-4.29V541.3l-15,4.3Zm0-135.47,15-4.29V405.84l-15,4.29Zm0,67.74,15-4.3V473.57l-15,4.29Zm0-33.87,15-4.29V439.7l-15,4.3Zm69.95,81.56,15-4.29V521.27l-15,4.29Zm0,33.87,15-4.29V555.13l-15,4.3Z"/><path class="cls-1" d="M605.57,560.8l7.5,5.9V542.29l-7.5-5.93ZM593.08,225.56l7.49,5.9V207l-7.49-5.93Zm12.49,237.62,7.5,5.9V444.67l-7.5-5.93Zm0-162.7,7.5,5.9V282l-7.5-5.94Zm0-65.08,7.5,5.9V216.89l-7.5-5.94Zm0,32.54,7.5,5.9V249.43l-7.5-5.94Zm0,65.08,7.5,5.9V314.51l-7.5-5.94Zm0,32.54,7.5,5.9V347.05l-7.5-5.94Zm0,162.7,7.5,5.9V509.75l-7.5-5.93ZM593.08,290.65l7.49,5.9V272.08l-7.49-5.94Zm0-32.55,7.49,5.91V239.54l-7.49-5.94Zm0,97.63,7.49,5.9V337.16l-7.49-5.94Zm0-32.54,7.49,5.9V304.62l-7.49-5.94Zm25-141.33v30.83l7.5,5.9V188.77Zm-25,401.65,7.49,5.9V564.94L593.08,559Zm0-162.7,7.49,5.9V402.24l-7.49-5.94Zm0-32.54,7.49,5.9V369.7l-7.49-5.94Zm0,97.62,7.49,5.9V467.32l-7.49-5.94Zm12.49-55.25,7.5,5.9V412.13l-7.5-5.94Zm12.49,9.84,7.5,5.9V422l-7.5-5.93Zm0,65.08,7.5,5.9V487.1l-7.5-5.93Zm0-97.62,7.5,5.9V389.48l-7.5-5.93Zm0,162.7,7.5,5.9V552.18l-7.5-5.93Zm0-195.24,7.5,5.9V356.94l-7.5-5.93ZM605.57,202.86l7.5,5.9V177.25l-7.5-6.91ZM593.08,193l7.49,5.9V165.74l-7.49-6.91Zm25,149.83,7.5,5.9V324.4l-7.5-5.94ZM580.59,183.19l7.49,5.9V154.22l-7.49-6.9Zm37.47,127.12,7.5,5.9V291.86l-7.5-5.94Zm0-32.54,7.5,5.9V259.32l-7.5-5.94Zm0-32.54,7.5,5.9V226.78l-7.5-5.94ZM580.59,476.05l7.49,5.91V457.43l-7.49-5.94Zm0-130.16,7.49,5.9V327.27l-7.49-5.94Zm0,32.54,7.49,5.9V359.81l-7.49-5.94Zm0-130.16,7.49,5.9V229.64l-7.49-5.93Zm0,32.54,7.49,5.9V262.18l-7.49-5.93Zm0,32.54,7.49,5.9V294.72l-7.49-5.93Zm0,195.24,7.49,5.91V490L580.59,484Zm0-292.86,7.49,5.9V197.1l-7.49-5.93Zm0,357.95,7.49,5.9V555.05l-7.49-5.94Z"/><polygon class="cls-1" points="724.17 469.08 711.52 465.45 711.52 485.94 724.17 489.57 724.17 469.08"/><polygon class="cls-1" points="724.17 526.25 711.52 522.63 711.52 543.12 724.17 546.74 724.17 526.25"/><polygon class="cls-1" points="763.54 366.01 750.88 362.39 750.88 382.87 763.54 386.5 763.54 366.01"/><polygon class="cls-1" points="724.17 411.91 711.52 408.28 711.52 428.77 724.17 432.39 724.17 411.91"/><polygon class="cls-1" points="763.54 423.18 750.88 419.56 750.88 440.05 763.54 443.67 763.54 423.18"/><polygon class="cls-1" points="743.86 331.79 731.2 328.16 731.2 348.65 743.86 352.27 743.86 331.79"/><polygon class="cls-1" points="724.17 383.32 711.52 379.7 711.52 400.18 724.17 403.81 724.17 383.32"/><polygon class="cls-1" points="724.17 354.73 711.52 351.11 711.52 371.6 724.17 375.22 724.17 354.73"/><polygon class="cls-1" points="724.17 326.15 711.52 322.52 711.52 343.01 724.17 346.63 724.17 326.15"/><polygon class="cls-1" points="743.86 446.13 731.2 442.51 731.2 462.99 743.86 466.62 743.86 446.13"/><polygon class="cls-1" points="743.86 503.3 731.2 499.68 731.2 520.17 743.86 523.79 743.86 503.3"/><polygon class="cls-1" points="743.86 360.37 731.2 356.75 731.2 377.24 743.86 380.86 743.86 360.37"/><polygon class="cls-1" points="743.86 417.55 731.2 413.92 731.2 434.41 743.86 438.03 743.86 417.55"/><polygon class="cls-1" points="763.54 337.42 750.88 333.8 750.88 354.29 763.54 357.91 763.54 337.42"/><polygon class="cls-1" points="743.86 388.96 731.2 385.33 731.2 405.82 743.86 409.45 743.86 388.96"/><polygon class="cls-1" points="743.86 560.48 731.2 556.85 731.2 577.34 743.86 580.96 743.86 560.48"/><polygon class="cls-1" points="763.54 451.77 750.88 448.14 750.88 468.63 763.54 472.26 763.54 451.77"/><polygon class="cls-1" points="704.49 434.86 691.84 431.23 691.84 451.72 704.49 455.34 704.49 434.86"/><polygon class="cls-1" points="704.49 377.68 691.84 374.06 691.84 394.55 704.49 398.17 704.49 377.68"/><polygon class="cls-1" points="704.49 406.27 691.84 402.64 691.84 423.13 704.49 426.76 704.49 406.27"/><polygon class="cls-1" points="704.49 349.1 691.84 345.47 691.84 365.96 704.49 369.58 704.49 349.1"/><polygon class="cls-1" points="763.54 480.36 750.88 476.73 750.88 497.22 763.54 500.84 763.54 480.36"/><polygon class="cls-1" points="704.49 320.51 691.84 316.88 691.84 337.37 704.49 341 704.49 320.51"/><polygon class="cls-1" points="704.49 549.2 691.84 545.58 691.84 566.06 704.49 569.69 704.49 549.2"/><polygon class="cls-1" points="691.84 287.11 691.84 308.79 704.49 312.41 704.49 291.1 691.84 287.11"/><polygon class="cls-1" points="763.54 309.72 750.88 305.73 750.88 325.7 763.54 329.32 763.54 309.72"/><polygon class="cls-1" points="724.17 297.31 711.52 293.31 711.52 314.43 724.17 318.05 724.17 297.31"/><polygon class="cls-1" points="743.86 303.51 731.2 299.52 731.2 320.06 743.86 323.69 743.86 303.51"/><polygon class="cls-1" points="704.49 492.03 691.84 488.4 691.84 508.89 704.49 512.52 704.49 492.03"/><polygon class="cls-1" points="763.54 623.29 750.88 619.66 750.88 640.15 763.54 643.77 763.54 623.29"/><polygon class="cls-1" points="763.54 566.12 750.88 562.49 750.88 582.98 763.54 586.6 763.54 566.12"/><polygon class="cls-1" points="704.49 606.37 691.84 602.75 691.84 623.24 704.49 626.86 704.49 606.37"/><polygon class="cls-1" points="672.15 332.47 665.83 337.48 665.83 358.13 672.15 353.15 672.15 332.47"/><polygon class="cls-1" points="661.61 533.09 655.28 538.1 655.28 558.7 661.61 553.72 661.61 533.09"/><polygon class="cls-1" points="661.61 395.75 655.28 400.76 655.28 421.37 661.61 416.39 661.61 395.75"/><polygon class="cls-1" points="661.61 340.82 655.28 345.83 655.28 366.44 661.61 361.45 661.61 340.82"/><polygon class="cls-1" points="661.61 368.29 655.28 373.3 655.28 393.9 661.61 388.92 661.61 368.29"/><polygon class="cls-1" points="661.61 423.22 655.28 428.23 655.28 448.84 661.61 443.86 661.61 423.22"/><polygon class="cls-1" points="661.61 450.69 655.28 455.7 655.28 476.3 661.61 471.32 661.61 450.69"/><polygon class="cls-1" points="661.61 588.02 655.28 593.03 655.28 613.64 661.61 608.65 661.61 588.02"/><polygon class="cls-1" points="672.15 387.4 665.83 392.41 665.83 413.07 672.15 408.09 672.15 387.4"/><polygon class="cls-1" points="672.15 359.94 665.83 364.95 665.83 385.6 672.15 380.62 672.15 359.94"/><polygon class="cls-1" points="672.15 414.87 665.83 419.88 665.83 440.54 672.15 435.55 672.15 414.87"/><polygon class="cls-1" points="672.15 634.6 665.83 639.61 665.83 660.27 672.15 655.29 672.15 634.6"/><polygon class="cls-1" points="672.15 497.27 665.83 502.28 665.83 522.93 672.15 517.95 672.15 497.27"/><polygon class="cls-1" points="672.15 469.8 665.83 474.81 665.83 495.47 672.15 490.49 672.15 469.8"/><polygon class="cls-1" points="672.15 552.2 665.83 557.21 665.83 577.87 672.15 572.89 672.15 552.2"/><polygon class="cls-1" points="651.07 513.97 644.74 518.98 644.74 539.54 651.07 534.56 651.07 513.97"/><polygon class="cls-1" points="651.07 568.9 644.74 573.91 644.74 594.47 651.07 589.49 651.07 568.9"/><polygon class="cls-1" points="651.07 486.5 644.74 491.51 644.74 512.07 651.07 507.09 651.07 486.5"/><polygon class="cls-1" points="651.07 459.04 644.74 464.05 644.74 484.6 651.07 479.62 651.07 459.04"/><polygon class="cls-1" points="651.07 431.57 644.74 436.58 644.74 457.14 651.07 452.16 651.07 431.57"/><polygon class="cls-1" points="651.07 404.1 644.74 409.11 644.74 429.67 651.07 424.69 651.07 404.1"/><polygon class="cls-1" points="651.07 376.64 644.74 381.64 644.74 402.2 651.07 397.22 651.07 376.64"/><polygon class="cls-1" points="651.07 349.17 644.74 354.18 644.74 374.74 651.07 369.76 651.07 349.17"/><polygon class="cls-1" points="682.7 543.86 676.37 548.86 676.37 569.57 682.7 564.59 682.7 543.86"/><polygon class="cls-1" points="682.7 461.45 676.37 466.46 676.37 487.17 682.7 482.19 682.7 461.45"/><polygon class="cls-1" points="682.7 351.59 676.37 356.6 676.37 377.3 682.7 372.32 682.7 351.59"/><polygon class="cls-1" points="682.7 379.05 676.37 384.06 676.37 404.77 682.7 399.79 682.7 379.05"/><polygon class="cls-1" points="682.7 324.12 676.37 329.13 676.37 349.83 682.7 344.85 682.7 324.12"/><polygon class="cls-1" points="691.84 258.71 691.84 280.39 704.49 284.02 704.49 262.7 691.84 258.71"/><polygon class="cls-1" points="763.54 281.33 750.88 277.34 750.88 297.31 763.54 300.93 763.54 281.33"/><polygon class="cls-1" points="724.17 268.91 711.52 264.92 711.52 286.03 724.17 289.65 724.17 268.91"/><polygon class="cls-1" points="743.86 275.12 731.2 271.13 731.2 291.67 743.86 295.29 743.86 275.12"/><polygon class="cls-1" points="672.15 304.08 665.83 309.09 665.83 329.74 672.15 324.76 672.15 304.08"/><polygon class="cls-1" points="661.61 312.43 655.28 317.44 655.28 338.04 661.61 333.06 661.61 312.43"/><polygon class="cls-1" points="651.07 320.77 644.74 325.79 644.74 346.34 651.07 341.36 651.07 320.77"/><polygon class="cls-1" points="682.7 295.73 676.37 300.74 676.37 321.44 682.7 316.46 682.7 295.73"/><polygon class="cls-1" points="691.84 230.32 691.84 252 704.49 255.62 704.49 234.31 691.84 230.32"/><polygon class="cls-1" points="763.54 252.94 750.88 248.94 750.88 268.91 763.54 272.54 763.54 252.94"/><polygon class="cls-1" points="724.17 240.52 711.52 236.53 711.52 257.64 724.17 261.26 724.17 240.52"/><polygon class="cls-1" points="672.15 275.68 665.83 280.69 665.83 301.35 672.15 296.37 672.15 275.68"/><polygon class="cls-1" points="661.61 284.03 655.28 289.04 655.28 309.65 661.61 304.67 661.61 284.03"/><polygon class="cls-1" points="651.07 292.38 644.74 297.39 644.74 317.95 651.07 312.97 651.07 292.38"/><polygon class="cls-1" points="682.7 267.33 676.37 272.34 676.37 293.05 682.7 288.07 682.7 267.33"/><polygon class="cls-1" points="691.84 201.93 691.84 223.61 704.49 227.23 704.49 205.92 691.84 201.93"/><polygon class="cls-1" points="763.54 224.54 750.88 220.55 750.88 240.52 763.54 244.15 763.54 224.54"/><polygon class="cls-1" points="724.17 212.13 711.52 208.13 711.52 229.24 724.17 232.87 724.17 212.13"/><polygon class="cls-1" points="743.86 218.33 731.2 214.34 731.2 234.88 743.86 238.51 743.86 218.33"/><polygon class="cls-1" points="672.15 247.29 665.83 252.3 665.83 272.95 672.15 267.97 672.15 247.29"/><polygon class="cls-1" points="661.61 255.64 655.28 260.65 655.28 281.25 661.61 276.27 661.61 255.64"/><polygon class="cls-1" points="651.07 263.99 644.74 269 644.74 289.56 651.07 284.57 651.07 263.99"/><polygon class="cls-1" points="682.7 238.94 676.37 243.95 676.37 264.65 682.7 259.67 682.7 238.94"/><polygon class="cls-1" points="691.84 173.53 691.84 195.21 704.49 198.84 704.49 177.52 691.84 173.53"/><polygon class="cls-1" points="763.54 196.15 750.88 192.16 750.88 212.13 763.54 215.75 763.54 196.15"/><polygon class="cls-1" points="724.17 183.73 711.52 179.74 711.52 200.85 724.17 204.47 724.17 183.73"/><polygon class="cls-1" points="743.86 189.94 731.2 185.95 731.2 206.49 743.86 210.11 743.86 189.94"/><polygon class="cls-1" points="672.15 218.9 665.83 223.91 665.83 244.56 672.15 239.58 672.15 218.9"/><polygon class="cls-1" points="661.61 227.25 655.28 232.25 655.28 252.86 661.61 247.88 661.61 227.25"/><polygon class="cls-1" points="651.07 235.59 644.74 240.6 644.74 261.16 651.07 256.18 651.07 235.59"/><polygon class="cls-1" points="682.7 210.55 676.37 215.56 676.37 236.26 682.7 231.28 682.7 210.55"/><polygon class="cls-1" points="691.84 145.14 691.84 166.82 704.49 170.44 704.49 149.13 691.84 145.14"/><polygon class="cls-1" points="763.54 167.76 750.88 163.76 750.88 183.73 763.54 187.36 763.54 167.76"/><polygon class="cls-1" points="724.17 155.34 711.52 151.35 711.52 172.46 724.17 176.08 724.17 155.34"/><polygon class="cls-1" points="743.86 161.55 731.2 157.56 731.2 178.09 743.86 181.72 743.86 161.55"/><polygon class="cls-1" points="661.61 198.85 655.28 203.86 655.28 224.47 661.61 219.49 661.61 198.85"/><polygon class="cls-1" points="651.07 207.2 644.74 212.21 644.74 232.77 651.07 227.79 651.07 207.2"/><polygon class="cls-1" points="682.7 182.15 676.37 187.16 676.37 207.87 682.7 202.89 682.7 182.15"/><polygon class="cls-1" points="691.84 116.75 691.84 138.43 704.49 142.05 704.49 120.74 691.84 116.75"/><polygon class="cls-1" points="691.84 34.87 691.84 56.55 704.49 60.17 704.49 38.86 691.84 34.87"/><polygon class="cls-1" points="691.84 6.46 691.84 28.14 704.49 31.77 704.49 10.45 691.84 6.46"/><polygon class="cls-1" points="763.54 139.36 750.88 135.37 750.88 155.34 763.54 158.96 763.54 139.36"/><polygon class="cls-1" points="724.17 126.95 711.52 122.95 711.52 144.06 724.17 147.69 724.17 126.95"/><polygon class="cls-1" points="743.86 133.15 731.2 129.16 731.2 149.7 743.86 153.33 743.86 133.15"/><polygon class="cls-1" points="724.17 99.63 711.52 95.64 711.52 116.75 724.17 120.37 724.17 99.63"/><polygon class="cls-1" points="743.86 105.84 731.2 101.85 731.2 122.39 743.86 126.01 743.86 105.84"/><polygon class="cls-1" points="724.17 72.32 711.52 68.33 711.52 89.44 724.17 93.06 724.17 72.32"/><polygon class="cls-1" points="743.86 78.53 731.2 74.54 731.2 95.08 743.86 98.7 743.86 78.53"/><polygon class="cls-1" points="672.15 162.11 665.83 167.12 665.83 187.77 672.15 182.79 672.15 162.11"/><polygon class="cls-1" points="661.61 170.46 655.28 175.47 655.28 196.07 661.61 191.09 661.61 170.46"/><polygon class="cls-1" points="651.07 178.81 644.74 183.82 644.74 204.38 651.07 199.4 651.07 178.81"/><polygon class="cls-1" points="682.7 153.76 676.37 158.77 676.37 179.47 682.7 174.49 682.7 153.76"/><polygon class="cls-1" points="672.15 133.72 665.83 138.72 665.83 159.38 672.15 154.4 672.15 133.72"/><polygon class="cls-1" points="661.61 142.06 655.28 147.07 655.28 167.68 661.61 162.7 661.61 142.06"/><polygon class="cls-1" points="651.07 150.41 644.74 155.42 644.74 175.98 651.07 171 651.07 150.41"/><polygon class="cls-1" points="682.7 125.37 676.37 130.38 676.37 151.08 682.7 146.1 682.7 125.37"/><polygon class="cls-1" points="672.15 104.93 665.83 109.94 665.83 130.59 672.15 125.61 672.15 104.93"/><polygon class="cls-1" points="682.7 96.58 676.37 101.59 676.37 122.29 682.7 117.31 682.7 96.58"/><polygon class="cls-1" points="672.15 76.14 665.83 81.15 665.83 101.8 672.15 96.82 672.15 76.14"/><polygon class="cls-1" points="682.7 67.79 676.37 72.8 676.37 93.5 682.7 88.52 682.7 67.79"/></g></g></svg>